G04 #@! TF.GenerationSoftware,KiCad,Pcbnew,(6.0.6)*
G04 #@! TF.CreationDate,2022-10-16T20:06:39+09:00*
G04 #@! TF.ProjectId,LedScoreBoard,4c656453-636f-4726-9542-6f6172642e6b,rev?*
G04 #@! TF.SameCoordinates,Original*
G04 #@! TF.FileFunction,Soldermask,Bot*
G04 #@! TF.FilePolarity,Negative*
%FSLAX46Y46*%
G04 Gerber Fmt 4.6, Leading zero omitted, Abs format (unit mm)*
G04 Created by KiCad (PCBNEW (6.0.6)) date 2022-10-16 20:06:39*
%MOMM*%
%LPD*%
G01*
G04 APERTURE LIST*
G04 Aperture macros list*
%AMRoundRect*
0 Rectangle with rounded corners*
0 $1 Rounding radius*
0 $2 $3 $4 $5 $6 $7 $8 $9 X,Y pos of 4 corners*
0 Add a 4 corners polygon primitive as box body*
4,1,4,$2,$3,$4,$5,$6,$7,$8,$9,$2,$3,0*
0 Add four circle primitives for the rounded corners*
1,1,$1+$1,$2,$3*
1,1,$1+$1,$4,$5*
1,1,$1+$1,$6,$7*
1,1,$1+$1,$8,$9*
0 Add four rect primitives between the rounded corners*
20,1,$1+$1,$2,$3,$4,$5,0*
20,1,$1+$1,$4,$5,$6,$7,0*
20,1,$1+$1,$6,$7,$8,$9,0*
20,1,$1+$1,$8,$9,$2,$3,0*%
G04 Aperture macros list end*
%ADD10C,2.200000*%
%ADD11R,1.905000X2.000000*%
%ADD12O,1.905000X2.000000*%
%ADD13C,3.200000*%
%ADD14C,2.000000*%
%ADD15RoundRect,0.250001X-1.099999X-1.099999X1.099999X-1.099999X1.099999X1.099999X-1.099999X1.099999X0*%
%ADD16C,2.700000*%
%ADD17R,3.000000X3.000000*%
%ADD18C,3.000000*%
%ADD19R,1.700000X1.700000*%
%ADD20O,1.700000X1.700000*%
%ADD21R,1.600000X2.400000*%
%ADD22O,1.600000X2.400000*%
%ADD23C,6.300000*%
%ADD24RoundRect,0.200000X-0.275000X0.200000X-0.275000X-0.200000X0.275000X-0.200000X0.275000X0.200000X0*%
%ADD25RoundRect,0.200000X-0.200000X-0.275000X0.200000X-0.275000X0.200000X0.275000X-0.200000X0.275000X0*%
%ADD26R,1.900000X0.800000*%
%ADD27R,1.100000X0.400000*%
%ADD28RoundRect,0.200000X0.200000X0.275000X-0.200000X0.275000X-0.200000X-0.275000X0.200000X-0.275000X0*%
%ADD29RoundRect,0.225000X0.225000X0.250000X-0.225000X0.250000X-0.225000X-0.250000X0.225000X-0.250000X0*%
%ADD30RoundRect,0.200000X0.275000X-0.200000X0.275000X0.200000X-0.275000X0.200000X-0.275000X-0.200000X0*%
%ADD31R,1.100000X2.000000*%
%ADD32R,1.100000X0.800000*%
%ADD33RoundRect,0.225000X-0.225000X-0.250000X0.225000X-0.250000X0.225000X0.250000X-0.225000X0.250000X0*%
%ADD34RoundRect,0.249999X-1.425001X0.450001X-1.425001X-0.450001X1.425001X-0.450001X1.425001X0.450001X0*%
%ADD35R,2.400000X2.400000*%
%ADD36O,2.400000X2.400000*%
%ADD37RoundRect,0.225000X-0.250000X0.225000X-0.250000X-0.225000X0.250000X-0.225000X0.250000X0.225000X0*%
%ADD38O,1.400000X0.900000*%
%ADD39O,0.900000X1.400000*%
%ADD40O,0.900000X1.200000*%
%ADD41C,0.800000*%
G04 APERTURE END LIST*
D10*
X110490000Y-44450000D03*
X110490000Y-69850000D03*
X110490000Y-95250000D03*
X161290000Y-166370000D03*
X140970000Y-166370000D03*
X120650000Y-166370000D03*
X100330000Y-166370000D03*
X80010000Y-166370000D03*
X59690000Y-166370000D03*
X39370000Y-166370000D03*
D11*
X163830000Y-160020000D03*
D12*
X161290000Y-160020000D03*
X158750000Y-160020000D03*
D13*
X165100000Y-170180000D03*
D14*
X70560000Y-89190000D03*
X64060000Y-89190000D03*
X70560000Y-93690000D03*
X64060000Y-93690000D03*
D15*
X136222500Y-76200000D03*
D16*
X140182500Y-76200000D03*
X144142500Y-76200000D03*
X148102500Y-76200000D03*
X152062500Y-76200000D03*
X156022500Y-76200000D03*
X159982500Y-76200000D03*
X163942500Y-76200000D03*
D11*
X62230000Y-160020000D03*
D12*
X59690000Y-160020000D03*
X57150000Y-160020000D03*
D11*
X107950000Y-50800000D03*
D12*
X110490000Y-50800000D03*
X113030000Y-50800000D03*
D13*
X165100000Y-30480000D03*
D14*
X41200000Y-89190000D03*
X47700000Y-89190000D03*
X47700000Y-93690000D03*
X41200000Y-93690000D03*
D17*
X116840000Y-33020000D03*
D18*
X121920000Y-33020000D03*
D19*
X27940000Y-123190000D03*
D20*
X27940000Y-125730000D03*
X27940000Y-128270000D03*
X27940000Y-130810000D03*
X27940000Y-133350000D03*
X27940000Y-135890000D03*
D13*
X25400000Y-170180000D03*
D11*
X107950000Y-101600000D03*
D12*
X110490000Y-101600000D03*
X113030000Y-101600000D03*
D11*
X102870000Y-160020000D03*
D12*
X100330000Y-160020000D03*
X97790000Y-160020000D03*
D13*
X25400000Y-30480000D03*
D14*
X59130000Y-79030000D03*
X52630000Y-79030000D03*
X59130000Y-83530000D03*
X52630000Y-83530000D03*
D11*
X76200000Y-33020000D03*
D12*
X78740000Y-33020000D03*
X81280000Y-33020000D03*
D14*
X41200000Y-79030000D03*
X47700000Y-79030000D03*
X47700000Y-83530000D03*
X41200000Y-83530000D03*
D15*
X136222500Y-50800000D03*
D16*
X140182500Y-50800000D03*
X144142500Y-50800000D03*
X148102500Y-50800000D03*
X152062500Y-50800000D03*
X156022500Y-50800000D03*
X159982500Y-50800000D03*
X163942500Y-50800000D03*
D11*
X82550000Y-160020000D03*
D12*
X80010000Y-160020000D03*
X77470000Y-160020000D03*
D15*
X136222500Y-101600000D03*
D16*
X140182500Y-101600000D03*
X144142500Y-101600000D03*
X148102500Y-101600000D03*
X152062500Y-101600000D03*
X156022500Y-101600000D03*
X159982500Y-101600000D03*
X163942500Y-101600000D03*
D21*
X72405000Y-104150000D03*
D22*
X69865000Y-104150000D03*
X67325000Y-104150000D03*
X64785000Y-104150000D03*
X62245000Y-104150000D03*
X59705000Y-104150000D03*
X57165000Y-104150000D03*
X54625000Y-104150000D03*
X52085000Y-104150000D03*
X49545000Y-104150000D03*
X47005000Y-104150000D03*
X44465000Y-104150000D03*
X41925000Y-104150000D03*
X39385000Y-104150000D03*
X39385000Y-111770000D03*
X41925000Y-111770000D03*
X44465000Y-111770000D03*
X47005000Y-111770000D03*
X49545000Y-111770000D03*
X52085000Y-111770000D03*
X54625000Y-111770000D03*
X57165000Y-111770000D03*
X59705000Y-111770000D03*
X62245000Y-111770000D03*
X64785000Y-111770000D03*
X67325000Y-111770000D03*
X69865000Y-111770000D03*
X72405000Y-111770000D03*
D14*
X29500000Y-111200000D03*
X29500000Y-104700000D03*
X34000000Y-111200000D03*
X34000000Y-104700000D03*
D19*
X33020000Y-48260000D03*
D20*
X33020000Y-50800000D03*
X33020000Y-53340000D03*
X33020000Y-55880000D03*
X33020000Y-58420000D03*
X33020000Y-60960000D03*
X33020000Y-63500000D03*
D11*
X107950000Y-76200000D03*
D12*
X110490000Y-76200000D03*
X113030000Y-76200000D03*
D19*
X27940000Y-78740000D03*
D20*
X27940000Y-81280000D03*
X27940000Y-83820000D03*
X27940000Y-86360000D03*
X27940000Y-88900000D03*
X27940000Y-91440000D03*
D14*
X64060000Y-79030000D03*
X70560000Y-79030000D03*
X64060000Y-83530000D03*
X70560000Y-83530000D03*
D11*
X123190000Y-160020000D03*
D12*
X120650000Y-160020000D03*
X118110000Y-160020000D03*
D11*
X41910000Y-160020000D03*
D12*
X39370000Y-160020000D03*
X36830000Y-160020000D03*
D19*
X27940000Y-53340000D03*
D20*
X27940000Y-55880000D03*
X27940000Y-58420000D03*
X27940000Y-60960000D03*
D11*
X143510000Y-160020000D03*
D12*
X140970000Y-160020000D03*
X138430000Y-160020000D03*
D14*
X52630000Y-89190000D03*
X59130000Y-89190000D03*
X52630000Y-93690000D03*
X59130000Y-93690000D03*
D23*
X43180000Y-35403770D03*
D17*
X60960000Y-33020000D03*
D18*
X66040000Y-33020000D03*
D24*
X90170000Y-53785000D03*
X90170000Y-55435000D03*
D25*
X34735000Y-147320000D03*
X36385000Y-147320000D03*
D24*
X90170000Y-79185000D03*
X90170000Y-80835000D03*
D26*
X65000000Y-137480000D03*
X65000000Y-139380000D03*
X62000000Y-138430000D03*
D27*
X67700000Y-149565000D03*
X67700000Y-148915000D03*
X67700000Y-148265000D03*
X67700000Y-147615000D03*
X72000000Y-147615000D03*
X72000000Y-148265000D03*
X72000000Y-148915000D03*
X72000000Y-149565000D03*
D28*
X145605000Y-147320000D03*
X143955000Y-147320000D03*
D27*
X27060000Y-149565000D03*
X27060000Y-148915000D03*
X27060000Y-148265000D03*
X27060000Y-147615000D03*
X31360000Y-147615000D03*
X31360000Y-148265000D03*
X31360000Y-148915000D03*
X31360000Y-149565000D03*
D26*
X146280000Y-137480000D03*
X146280000Y-139380000D03*
X143280000Y-138430000D03*
D29*
X82055000Y-38100000D03*
X80505000Y-38100000D03*
D30*
X96852500Y-38925000D03*
X96852500Y-37275000D03*
D26*
X37060000Y-137480000D03*
X37060000Y-139380000D03*
X34060000Y-138430000D03*
D25*
X116015000Y-147320000D03*
X117665000Y-147320000D03*
D31*
X90502500Y-37450000D03*
D32*
X90502500Y-39350000D03*
D26*
X83590000Y-106360000D03*
X83590000Y-104460000D03*
X86590000Y-105410000D03*
D33*
X50040000Y-115580000D03*
X51590000Y-115580000D03*
D25*
X156655000Y-149860000D03*
X158305000Y-149860000D03*
D29*
X64275000Y-144780000D03*
X62725000Y-144780000D03*
D26*
X118340000Y-137480000D03*
X118340000Y-139380000D03*
X115340000Y-138430000D03*
D34*
X49530000Y-156970000D03*
X49530000Y-163070000D03*
D27*
X148980000Y-149565000D03*
X148980000Y-148915000D03*
X148980000Y-148265000D03*
X148980000Y-147615000D03*
X153280000Y-147615000D03*
X153280000Y-148265000D03*
X153280000Y-148915000D03*
X153280000Y-149565000D03*
D28*
X64325000Y-147320000D03*
X62675000Y-147320000D03*
D24*
X90170000Y-46165000D03*
X90170000Y-47815000D03*
D33*
X75425000Y-38100000D03*
X76975000Y-38100000D03*
D28*
X104965000Y-149860000D03*
X103315000Y-149860000D03*
D25*
X100775000Y-50800000D03*
X102425000Y-50800000D03*
D29*
X59195000Y-61595000D03*
X57645000Y-61595000D03*
X151905000Y-152400000D03*
X150355000Y-152400000D03*
D35*
X123190000Y-109220000D03*
D36*
X110490000Y-109220000D03*
D28*
X145605000Y-149860000D03*
X143955000Y-149860000D03*
D25*
X100775000Y-76200000D03*
X102425000Y-76200000D03*
D26*
X77700000Y-137480000D03*
X77700000Y-139380000D03*
X74700000Y-138430000D03*
X93750000Y-80960000D03*
X93750000Y-79060000D03*
X96750000Y-80010000D03*
D33*
X116065000Y-144780000D03*
X117615000Y-144780000D03*
D34*
X130810000Y-156970000D03*
X130810000Y-163070000D03*
D33*
X156705000Y-144780000D03*
X158255000Y-144780000D03*
D26*
X93750000Y-47940000D03*
X93750000Y-46040000D03*
X96750000Y-46990000D03*
X93750000Y-106360000D03*
X93750000Y-104460000D03*
X96750000Y-105410000D03*
D35*
X123190000Y-83820000D03*
D36*
X110490000Y-83820000D03*
D24*
X90170000Y-96965000D03*
X90170000Y-98615000D03*
D29*
X104915000Y-144780000D03*
X103365000Y-144780000D03*
D26*
X93750000Y-55560000D03*
X93750000Y-53660000D03*
X96750000Y-54610000D03*
D29*
X111265000Y-152400000D03*
X109715000Y-152400000D03*
D34*
X69850000Y-156970000D03*
X69850000Y-163070000D03*
D29*
X145555000Y-144780000D03*
X144005000Y-144780000D03*
D26*
X83590000Y-80960000D03*
X83590000Y-79060000D03*
X86590000Y-80010000D03*
X105640000Y-137480000D03*
X105640000Y-139380000D03*
X102640000Y-138430000D03*
D34*
X110490000Y-156970000D03*
X110490000Y-163070000D03*
D37*
X94312500Y-37325000D03*
X94312500Y-38875000D03*
D25*
X100775000Y-101600000D03*
X102425000Y-101600000D03*
D33*
X34785000Y-144780000D03*
X36335000Y-144780000D03*
D34*
X29210000Y-156970000D03*
X29210000Y-163070000D03*
D25*
X75375000Y-149860000D03*
X77025000Y-149860000D03*
X156655000Y-147320000D03*
X158305000Y-147320000D03*
D26*
X158980000Y-137480000D03*
X158980000Y-139380000D03*
X155980000Y-138430000D03*
D34*
X90170000Y-156970000D03*
X90170000Y-163070000D03*
D26*
X83590000Y-55560000D03*
X83590000Y-53660000D03*
X86590000Y-54610000D03*
D34*
X151130000Y-156970000D03*
X151130000Y-163070000D03*
D25*
X116015000Y-149860000D03*
X117665000Y-149860000D03*
D24*
X90170000Y-104585000D03*
X90170000Y-106235000D03*
D25*
X75375000Y-147320000D03*
X77025000Y-147320000D03*
D28*
X64325000Y-149860000D03*
X62675000Y-149860000D03*
D26*
X93750000Y-98740000D03*
X93750000Y-96840000D03*
X96750000Y-97790000D03*
D25*
X34735000Y-149860000D03*
X36385000Y-149860000D03*
D29*
X70625000Y-152400000D03*
X69075000Y-152400000D03*
D27*
X108340000Y-149565000D03*
X108340000Y-148915000D03*
X108340000Y-148265000D03*
X108340000Y-147615000D03*
X112640000Y-147615000D03*
X112640000Y-148265000D03*
X112640000Y-148915000D03*
X112640000Y-149565000D03*
D38*
X54995000Y-56515000D03*
X54995000Y-57785000D03*
X54995000Y-59055000D03*
X54995000Y-60325000D03*
X54995000Y-61595000D03*
X54995000Y-62865000D03*
X54995000Y-64135000D03*
X54995000Y-65405000D03*
D39*
X52705000Y-67695000D03*
X51435000Y-67695000D03*
X50165000Y-67695000D03*
X48895000Y-67695000D03*
X47625000Y-67695000D03*
X46355000Y-67695000D03*
X45085000Y-67695000D03*
X43815000Y-67695000D03*
D38*
X41525000Y-65405000D03*
X41525000Y-64135000D03*
X41525000Y-62865000D03*
X41525000Y-61595000D03*
X41525000Y-60325000D03*
X41525000Y-59055000D03*
X41525000Y-57785000D03*
X41525000Y-56515000D03*
D39*
X43815000Y-54225000D03*
X45085000Y-54225000D03*
X46355000Y-54225000D03*
X47625000Y-54225000D03*
X48895000Y-54225000D03*
X50165000Y-54225000D03*
D40*
X51435000Y-54125000D03*
X52705000Y-54125000D03*
D24*
X90170000Y-71565000D03*
X90170000Y-73215000D03*
D28*
X104965000Y-147320000D03*
X103315000Y-147320000D03*
D29*
X29985000Y-152400000D03*
X28435000Y-152400000D03*
D26*
X93750000Y-73340000D03*
X93750000Y-71440000D03*
X96750000Y-72390000D03*
D33*
X75425000Y-144780000D03*
X76975000Y-144780000D03*
D35*
X123190000Y-58420000D03*
D36*
X110490000Y-58420000D03*
D41*
X57158800Y-59180700D03*
X109392300Y-154245400D03*
X30229500Y-150065500D03*
X70625000Y-155141300D03*
X151633500Y-148678400D03*
X111848100Y-138054200D03*
X135912700Y-137699700D03*
X137065200Y-133545800D03*
X64150600Y-108494900D03*
X69148400Y-137791200D03*
X34060000Y-137405300D03*
X100910400Y-138176400D03*
X76540500Y-112936100D03*
X109596400Y-137304900D03*
X139060100Y-136304300D03*
X52770600Y-69198900D03*
X53969700Y-70207500D03*
M02*
