M48
; DRILL file {KiCad (6.0.6)} date Sun Oct 16 20:07:49 2022
; FORMAT={-:-/ absolute / metric / decimal}
; #@! TF.CreationDate,2022-10-16T20:07:49+09:00
; #@! TF.GenerationSoftware,Kicad,Pcbnew,(6.0.6)
; #@! TF.FileFunction,MixedPlating,1,2
FMAT,2
METRIC
; #@! TA.AperFunction,Plated,PTH,ViaDrill
T1C0.400
; #@! TA.AperFunction,Plated,PTH,ComponentDrill
T2C0.800
; #@! TA.AperFunction,Plated,PTH,ComponentDrill
T3C1.000
; #@! TA.AperFunction,Plated,PTH,ComponentDrill
T4C1.100
; #@! TA.AperFunction,Plated,PTH,ComponentDrill
T5C1.200
; #@! TA.AperFunction,Plated,PTH,ComponentDrill
T6C1.520
; #@! TA.AperFunction,Plated,PTH,ComponentDrill
T7C1.700
; #@! TA.AperFunction,NonPlated,NPTH,ComponentDrill
T8C2.200
; #@! TA.AperFunction,NonPlated,NPTH,ComponentDrill
T9C3.200
; #@! TA.AperFunction,NonPlated,NPTH,ComponentDrill
T10C6.300
%
G90
G05
T1
X30.229Y-150.065
X34.06Y-137.405
X52.771Y-69.199
X53.97Y-70.207
X57.159Y-59.181
X64.151Y-108.495
X69.148Y-137.791
X70.625Y-155.141
X76.54Y-112.936
X100.91Y-138.176
X109.392Y-154.245
X109.596Y-137.305
X111.848Y-138.054
X135.913Y-137.7
X137.065Y-133.546
X139.06Y-136.304
X151.633Y-148.678
T2
X39.385Y-104.15
X39.385Y-111.77
X41.925Y-104.15
X41.925Y-111.77
X44.465Y-104.15
X44.465Y-111.77
X47.005Y-104.15
X47.005Y-111.77
X49.545Y-104.15
X49.545Y-111.77
X52.085Y-104.15
X52.085Y-111.77
X54.625Y-104.15
X54.625Y-111.77
X57.165Y-104.15
X57.165Y-111.77
X59.705Y-104.15
X59.705Y-111.77
X62.245Y-104.15
X62.245Y-111.77
X64.785Y-104.15
X64.785Y-111.77
X67.325Y-104.15
X67.325Y-111.77
X69.865Y-104.15
X69.865Y-111.77
X72.405Y-104.15
X72.405Y-111.77
T3
X27.94Y-53.34
X27.94Y-55.88
X27.94Y-58.42
X27.94Y-60.96
X27.94Y-78.74
X27.94Y-81.28
X27.94Y-83.82
X27.94Y-86.36
X27.94Y-88.9
X27.94Y-91.44
X27.94Y-123.19
X27.94Y-125.73
X27.94Y-128.27
X27.94Y-130.81
X27.94Y-133.35
X27.94Y-135.89
X33.02Y-48.26
X33.02Y-50.8
X33.02Y-53.34
X33.02Y-55.88
X33.02Y-58.42
X33.02Y-60.96
X33.02Y-63.5
T4
X29.5Y-104.7
X29.5Y-111.2
X34.0Y-104.7
X34.0Y-111.2
X36.83Y-160.02
X39.37Y-160.02
X41.2Y-79.03
X41.2Y-83.53
X41.2Y-89.19
X41.2Y-93.69
X41.91Y-160.02
X47.7Y-79.03
X47.7Y-83.53
X47.7Y-89.19
X47.7Y-93.69
X52.63Y-79.03
X52.63Y-83.53
X52.63Y-89.19
X52.63Y-93.69
X57.15Y-160.02
X59.13Y-79.03
X59.13Y-83.53
X59.13Y-89.19
X59.13Y-93.69
X59.69Y-160.02
X62.23Y-160.02
X64.06Y-79.03
X64.06Y-83.53
X64.06Y-89.19
X64.06Y-93.69
X70.56Y-79.03
X70.56Y-83.53
X70.56Y-89.19
X70.56Y-93.69
X76.2Y-33.02
X77.47Y-160.02
X78.74Y-33.02
X80.01Y-160.02
X81.28Y-33.02
X82.55Y-160.02
X97.79Y-160.02
X100.33Y-160.02
X102.87Y-160.02
X107.95Y-50.8
X107.95Y-76.2
X107.95Y-101.6
X110.49Y-50.8
X110.49Y-76.2
X110.49Y-101.6
X113.03Y-50.8
X113.03Y-76.2
X113.03Y-101.6
X118.11Y-160.02
X120.65Y-160.02
X123.19Y-160.02
X138.43Y-160.02
X140.97Y-160.02
X143.51Y-160.02
X158.75Y-160.02
X161.29Y-160.02
X163.83Y-160.02
T5
X110.49Y-58.42
X110.49Y-83.82
X110.49Y-109.22
X123.19Y-58.42
X123.19Y-83.82
X123.19Y-109.22
T6
X60.96Y-33.02
X66.04Y-33.02
X116.84Y-33.02
X121.92Y-33.02
T7
X136.222Y-50.8
X136.222Y-76.2
X136.222Y-101.6
X140.183Y-50.8
X140.183Y-76.2
X140.183Y-101.6
X144.142Y-50.8
X144.142Y-76.2
X144.142Y-101.6
X148.102Y-50.8
X148.102Y-76.2
X148.102Y-101.6
X152.062Y-50.8
X152.062Y-76.2
X152.062Y-101.6
X156.022Y-50.8
X156.022Y-76.2
X156.022Y-101.6
X159.982Y-50.8
X159.982Y-76.2
X159.982Y-101.6
X163.942Y-50.8
X163.942Y-76.2
X163.942Y-101.6
T8
X39.37Y-166.37
X59.69Y-166.37
X80.01Y-166.37
X100.33Y-166.37
X110.49Y-44.45
X110.49Y-69.85
X110.49Y-95.25
X120.65Y-166.37
X140.97Y-166.37
X161.29Y-166.37
T9
X25.4Y-30.48
X25.4Y-170.18
X165.1Y-30.48
X165.1Y-170.18
T10
X43.18Y-35.404
T0
M30
