G04 #@! TF.GenerationSoftware,KiCad,Pcbnew,(6.0.6)*
G04 #@! TF.CreationDate,2022-10-16T20:06:39+09:00*
G04 #@! TF.ProjectId,LedScoreBoard,4c656453-636f-4726-9542-6f6172642e6b,rev?*
G04 #@! TF.SameCoordinates,Original*
G04 #@! TF.FileFunction,Soldermask,Top*
G04 #@! TF.FilePolarity,Negative*
%FSLAX46Y46*%
G04 Gerber Fmt 4.6, Leading zero omitted, Abs format (unit mm)*
G04 Created by KiCad (PCBNEW (6.0.6)) date 2022-10-16 20:06:39*
%MOMM*%
%LPD*%
G01*
G04 APERTURE LIST*
G04 Aperture macros list*
%AMRoundRect*
0 Rectangle with rounded corners*
0 $1 Rounding radius*
0 $2 $3 $4 $5 $6 $7 $8 $9 X,Y pos of 4 corners*
0 Add a 4 corners polygon primitive as box body*
4,1,4,$2,$3,$4,$5,$6,$7,$8,$9,$2,$3,0*
0 Add four circle primitives for the rounded corners*
1,1,$1+$1,$2,$3*
1,1,$1+$1,$4,$5*
1,1,$1+$1,$6,$7*
1,1,$1+$1,$8,$9*
0 Add four rect primitives between the rounded corners*
20,1,$1+$1,$2,$3,$4,$5,0*
20,1,$1+$1,$4,$5,$6,$7,0*
20,1,$1+$1,$6,$7,$8,$9,0*
20,1,$1+$1,$8,$9,$2,$3,0*%
G04 Aperture macros list end*
%ADD10C,2.200000*%
%ADD11R,1.905000X2.000000*%
%ADD12O,1.905000X2.000000*%
%ADD13C,3.200000*%
%ADD14C,2.000000*%
%ADD15RoundRect,0.250001X-1.099999X-1.099999X1.099999X-1.099999X1.099999X1.099999X-1.099999X1.099999X0*%
%ADD16C,2.700000*%
%ADD17R,3.000000X3.000000*%
%ADD18C,3.000000*%
%ADD19R,1.700000X1.700000*%
%ADD20O,1.700000X1.700000*%
%ADD21R,1.600000X2.400000*%
%ADD22O,1.600000X2.400000*%
%ADD23C,6.300000*%
%ADD24R,2.400000X2.400000*%
%ADD25O,2.400000X2.400000*%
%ADD26C,0.800000*%
G04 APERTURE END LIST*
D10*
X110490000Y-44450000D03*
X110490000Y-69850000D03*
X110490000Y-95250000D03*
X161290000Y-166370000D03*
X140970000Y-166370000D03*
X120650000Y-166370000D03*
X100330000Y-166370000D03*
X80010000Y-166370000D03*
X59690000Y-166370000D03*
X39370000Y-166370000D03*
D11*
X163830000Y-160020000D03*
D12*
X161290000Y-160020000D03*
X158750000Y-160020000D03*
D13*
X165100000Y-170180000D03*
D14*
X70560000Y-89190000D03*
X64060000Y-89190000D03*
X70560000Y-93690000D03*
X64060000Y-93690000D03*
D15*
X136222500Y-76200000D03*
D16*
X140182500Y-76200000D03*
X144142500Y-76200000D03*
X148102500Y-76200000D03*
X152062500Y-76200000D03*
X156022500Y-76200000D03*
X159982500Y-76200000D03*
X163942500Y-76200000D03*
D11*
X62230000Y-160020000D03*
D12*
X59690000Y-160020000D03*
X57150000Y-160020000D03*
D11*
X107950000Y-50800000D03*
D12*
X110490000Y-50800000D03*
X113030000Y-50800000D03*
D13*
X165100000Y-30480000D03*
D14*
X41200000Y-89190000D03*
X47700000Y-89190000D03*
X47700000Y-93690000D03*
X41200000Y-93690000D03*
D17*
X116840000Y-33020000D03*
D18*
X121920000Y-33020000D03*
D19*
X27940000Y-123190000D03*
D20*
X27940000Y-125730000D03*
X27940000Y-128270000D03*
X27940000Y-130810000D03*
X27940000Y-133350000D03*
X27940000Y-135890000D03*
D13*
X25400000Y-170180000D03*
D11*
X107950000Y-101600000D03*
D12*
X110490000Y-101600000D03*
X113030000Y-101600000D03*
D11*
X102870000Y-160020000D03*
D12*
X100330000Y-160020000D03*
X97790000Y-160020000D03*
D13*
X25400000Y-30480000D03*
D14*
X59130000Y-79030000D03*
X52630000Y-79030000D03*
X59130000Y-83530000D03*
X52630000Y-83530000D03*
D11*
X76200000Y-33020000D03*
D12*
X78740000Y-33020000D03*
X81280000Y-33020000D03*
D14*
X41200000Y-79030000D03*
X47700000Y-79030000D03*
X47700000Y-83530000D03*
X41200000Y-83530000D03*
D15*
X136222500Y-50800000D03*
D16*
X140182500Y-50800000D03*
X144142500Y-50800000D03*
X148102500Y-50800000D03*
X152062500Y-50800000D03*
X156022500Y-50800000D03*
X159982500Y-50800000D03*
X163942500Y-50800000D03*
D11*
X82550000Y-160020000D03*
D12*
X80010000Y-160020000D03*
X77470000Y-160020000D03*
D15*
X136222500Y-101600000D03*
D16*
X140182500Y-101600000D03*
X144142500Y-101600000D03*
X148102500Y-101600000D03*
X152062500Y-101600000D03*
X156022500Y-101600000D03*
X159982500Y-101600000D03*
X163942500Y-101600000D03*
D21*
X72405000Y-104150000D03*
D22*
X69865000Y-104150000D03*
X67325000Y-104150000D03*
X64785000Y-104150000D03*
X62245000Y-104150000D03*
X59705000Y-104150000D03*
X57165000Y-104150000D03*
X54625000Y-104150000D03*
X52085000Y-104150000D03*
X49545000Y-104150000D03*
X47005000Y-104150000D03*
X44465000Y-104150000D03*
X41925000Y-104150000D03*
X39385000Y-104150000D03*
X39385000Y-111770000D03*
X41925000Y-111770000D03*
X44465000Y-111770000D03*
X47005000Y-111770000D03*
X49545000Y-111770000D03*
X52085000Y-111770000D03*
X54625000Y-111770000D03*
X57165000Y-111770000D03*
X59705000Y-111770000D03*
X62245000Y-111770000D03*
X64785000Y-111770000D03*
X67325000Y-111770000D03*
X69865000Y-111770000D03*
X72405000Y-111770000D03*
D14*
X29500000Y-111200000D03*
X29500000Y-104700000D03*
X34000000Y-111200000D03*
X34000000Y-104700000D03*
D19*
X33020000Y-48260000D03*
D20*
X33020000Y-50800000D03*
X33020000Y-53340000D03*
X33020000Y-55880000D03*
X33020000Y-58420000D03*
X33020000Y-60960000D03*
X33020000Y-63500000D03*
D11*
X107950000Y-76200000D03*
D12*
X110490000Y-76200000D03*
X113030000Y-76200000D03*
D19*
X27940000Y-78740000D03*
D20*
X27940000Y-81280000D03*
X27940000Y-83820000D03*
X27940000Y-86360000D03*
X27940000Y-88900000D03*
X27940000Y-91440000D03*
D14*
X64060000Y-79030000D03*
X70560000Y-79030000D03*
X64060000Y-83530000D03*
X70560000Y-83530000D03*
D11*
X123190000Y-160020000D03*
D12*
X120650000Y-160020000D03*
X118110000Y-160020000D03*
D11*
X41910000Y-160020000D03*
D12*
X39370000Y-160020000D03*
X36830000Y-160020000D03*
D19*
X27940000Y-53340000D03*
D20*
X27940000Y-55880000D03*
X27940000Y-58420000D03*
X27940000Y-60960000D03*
D11*
X143510000Y-160020000D03*
D12*
X140970000Y-160020000D03*
X138430000Y-160020000D03*
D14*
X52630000Y-89190000D03*
X59130000Y-89190000D03*
X52630000Y-93690000D03*
X59130000Y-93690000D03*
D23*
X43180000Y-35403770D03*
D17*
X60960000Y-33020000D03*
D18*
X66040000Y-33020000D03*
D24*
X123190000Y-109220000D03*
D25*
X110490000Y-109220000D03*
D24*
X123190000Y-83820000D03*
D25*
X110490000Y-83820000D03*
D24*
X123190000Y-58420000D03*
D25*
X110490000Y-58420000D03*
D26*
X57158800Y-59180700D03*
X109392300Y-154245400D03*
X30229500Y-150065500D03*
X70625000Y-155141300D03*
X151633500Y-148678400D03*
X111848100Y-138054200D03*
X135912700Y-137699700D03*
X137065200Y-133545800D03*
X64150600Y-108494900D03*
X69148400Y-137791200D03*
X34060000Y-137405300D03*
X100910400Y-138176400D03*
X76540500Y-112936100D03*
X109596400Y-137304900D03*
X139060100Y-136304300D03*
X52770600Y-69198900D03*
X53969700Y-70207500D03*
M02*
